# xmcd
#
# Track frame offsets:
#	150
#	21270
#	41872
#	62915
#	84205
#	101830
#	120267
#	138442
#	160257
#	177705
#	192622
#	207540
#	229464
#	246659
#	265919
#	283515
#	302845
#
# Disc length: 4237 seconds
#
# Revision: 0
# Processed by: cddbd v1.5.2PL0 Copyright (c) Steve Scherf et al.
# Submitted via: dBpowerAMP V4.0
#
DISCID=09108b11
DTITLE=Various Artist - Top Hits USA RA35
DYEAR=1900
DGENRE=
TTITLE0=Celine Dion - Because You Loved Me (Theme From ''Up Close and Personal'')
TTITLE1=Whitney Houston and CeCe Winans - Count On Me
TTITLE2=Lionel Richie - Don't Wanna Lose You (Radio Edit)
TTITLE3=Expose - I'll Say Goodbye For The Two Of Us
TTITLE4=Blessid Union Of Souls - Oh Virginia
TTITLE5=Sophie B. Hawkins - Only Love (The Ballad Of ''Sleeping Beauty'') (Radio Edit)
TTITLE6=Jackson Browne - Some Bridges (Edit)
TTITLE7=Wynonna - To Be Loved By You
TTITLE8=Jim Brickman featuring Laura Creamer - By Heart
TTITLE9=Amy Grant - The Things We Do For Love
TTITLE10=Bodeans - Closer To Free
TTITLE11=Melissa Etheridge - I Want To Come Over
TTITLE12=Gin Blossoms - Follow You Down (Edit)
TTITLE13=Mariah Carey - Always Be My Baby
TTITLE14=Jonathan Cain - Little River
TTITLE15=Joni Mitchell - How Do You Stop (Radiomix)
TTITLE16=Bob Seger and The Silver Bullet Band - I Wonder (Single Edit)
EXTD=
EXTT0=
EXTT1=
EXTT2=
EXTT3=
EXTT4=
EXTT5=
EXTT6=
EXTT7=
EXTT8=
EXTT9=
EXTT10=
EXTT11=
EXTT12=
EXTT13=
EXTT14=
EXTT15=
EXTT16=
PLAYORDER=
